<svg xmlns="http://www.w3.org/2000/svg" xmlns:xlink="http://www.w3.org/1999/xlink" width="50pt" height="50pt" viewBox="0 0 50 50" version="1.1">
<path style=" stroke:none;fill-rule:nonzero;fill:rgb(0%,0%,0%);fill-opacity:1;" d="M 49.21875 25 C 49.21875 38.378906 38.378906 49.21875 25 49.21875 C 11.621094 49.21875 0.78125 38.378906 0.78125 25 C 0.78125 11.621094 11.621094 0.78125 25 0.78125 C 38.378906 0.78125 49.21875 11.621094 49.21875 25 Z M 20.703125 13.671875 L 20.703125 25 L 13.78125 25 C 12.734375 25 12.207031 26.269531 12.949219 27 L 24.171875 38.164062 C 24.628906 38.625 25.359375 38.625 25.820312 38.164062 L 37.039062 27 C 37.78125 26.257812 37.253906 25 36.210938 25 L 29.296875 25 L 29.296875 13.671875 C 29.296875 13.027344 28.769531 12.5 28.125 12.5 L 21.875 12.5 C 21.230469 12.5 20.703125 13.027344 20.703125 13.671875 Z M 20.703125 13.671875 "/>
</svg>
