<svg width="28" height="16" viewBox="0 0 28 16" fill="#c5c5e0" xmlns="http://www.w3.org/2000/svg">
<path d="M14.7883 15.6857L11.1235 12C10.7407 11.5809 10.7407 11.4191 11.1236 11L12.5 9.5C13.5 8.5 13.6092 8.58093 13.9999 9L15.4994 10.3719L24.8762 0.314301C25.2669 -0.104767 25.9077 -0.104767 26.2906 0.314301L27.7127 1.83133C28.0956 2.25039 28.0956 2.92928 27.7127 3.34835L16.2105 15.6857C15.8198 16.1048 15.179 16.1048 14.7883 15.6857Z" fill="#C5C5E0"/>
<path d="M7.78843 15.6857L1.28717 8.71241C0.904278 8.29335 0.904278 7.61446 1.28717 7.19539L2.70932 5.67837C3.09221 5.2593 3.73296 5.2593 4.12366 5.67837L8.49951 10.3719L17.8763 0.314301C18.267 -0.104767 18.9078 -0.104767 19.2907 0.314301L20.7128 1.83133C21.0957 2.25039 21.0957 2.92928 20.7128 3.34835L9.21059 15.6857C8.81989 16.1048 8.17914 16.1048 7.78843 15.6857Z" fill="#C5C5E0"/>
</svg>
