<?xml version="1.0" encoding="UTF-8"?>
<svg xmlns="http://www.w3.org/2000/svg" xmlns:xlink="http://www.w3.org/1999/xlink" width="32pt" height="33pt" viewBox="0 0 32 33" version="1.1">
<g id="surface1">
<path style=" stroke:none;fill-rule:nonzero;fill:rgb(0%,0%,0%);fill-opacity:1;" d="M 16 0.515625 C 7.160156 0.515625 0 7.671875 0 16.5 C 0 25.328125 7.160156 32.484375 16 32.484375 C 24.839844 32.484375 32 25.328125 32 16.5 C 32 7.671875 24.839844 0.515625 16 0.515625 Z M 16 29.390625 C 8.882812 29.390625 3.097656 23.609375 3.097656 16.5 C 3.097656 9.390625 8.882812 3.609375 16 3.609375 C 23.117188 3.609375 28.902344 9.390625 28.902344 16.5 C 28.902344 23.609375 23.117188 29.390625 16 29.390625 Z M 10.839844 15.46875 C 11.980469 15.46875 12.902344 14.546875 12.902344 13.40625 C 12.902344 12.265625 11.980469 11.34375 10.839844 11.34375 C 9.695312 11.34375 8.773438 12.265625 8.773438 13.40625 C 8.773438 14.546875 9.695312 15.46875 10.839844 15.46875 Z M 21.160156 15.46875 C 22.304688 15.46875 23.226562 14.546875 23.226562 13.40625 C 23.226562 12.265625 22.304688 11.34375 21.160156 11.34375 C 20.019531 11.34375 19.097656 12.265625 19.097656 13.40625 C 19.097656 14.546875 20.019531 15.46875 21.160156 15.46875 Z M 21.417969 20.148438 C 20.078125 21.757812 18.097656 22.6875 16 22.6875 C 13.902344 22.6875 11.921875 21.765625 10.582031 20.148438 C 10.03125 19.492188 9.050781 19.40625 8.398438 19.949219 C 7.742188 20.496094 7.65625 21.46875 8.199219 22.125 C 10.136719 24.445312 12.980469 25.773438 16 25.773438 C 19.019531 25.773438 21.863281 24.445312 23.800781 22.125 C 24.347656 21.46875 24.257812 20.496094 23.601562 19.949219 C 22.949219 19.40625 21.96875 19.492188 21.417969 20.148438 Z M 21.417969 20.148438 "/>
</g>
</svg>
